<?xml version="1.0" standalone="no"?>
<!DOCTYPE svg PUBLIC "-//W3C//DTD SVG 20010904//EN"
 "http://www.w3.org/TR/2001/REC-SVG-20010904/DTD/svg10.dtd">
<svg version="1.0" xmlns="http://www.w3.org/2000/svg"
 width="896.000000pt" height="666.000000pt" viewBox="0 0 896.000000 666.000000"
 preserveAspectRatio="xMidYMid meet">

<g transform="translate(0.000000,666.000000) scale(0.100000,-0.100000)"
fill="#000000" stroke="none">
<path d="M3660 5735 c-7 -8 -10 -25 -6 -40 5 -19 13 -25 34 -25 15 0 33 5 39
11 8 8 43 7 129 -5 1048 -144 1901 -889 2179 -1901 219 -798 39 -1653 -485
-2303 -110 -137 -325 -344 -470 -451 -375 -280 -793 -448 -1260 -506 -158 -19
-447 -19 -612 0 -607 71 -1165 350 -1595 798 -262 273 -457 592 -581 948 -23
67 -27 89 -19 111 21 54 -51 85 -75 32 -11 -24 -10 -29 14 -48 19 -15 39 -54
68 -136 88 -246 255 -545 426 -760 133 -168 350 -369 544 -507 783 -555 1827
-636 2689 -207 279 138 483 285 701 504 317 317 532 674 661 1097 112 370 139
800 73 1188 -132 785 -625 1474 -1334 1865 -275 152 -628 266 -933 302 -85 10
-111 16 -118 30 -12 22 -52 24 -69 3z"/>
<path d="M3055 5693 c-343 -43 -628 -202 -848 -473 -51 -63 -42 -55 57 47 139
144 217 206 346 272 181 93 346 132 558 132 73 0 138 -3 144 -7 7 -4 2 -14
-13 -26 -21 -17 -19 -17 19 2 24 12 42 26 39 33 -2 7 -24 15 -48 19 -46 7
-202 8 -254 1z"/>
<path d="M2189 5597 c-85 -71 -282 -277 -347 -363 -105 -139 -183 -322 -201
-470 -10 -83 -44 -164 -92 -224 -86 -106 -243 -374 -314 -537 -13 -29 -27 -53
-31 -53 -11 0 5 128 27 215 12 46 54 150 99 245 44 91 86 192 95 225 17 66 37
312 28 346 -4 16 -26 -20 -85 -143 -128 -264 -196 -419 -215 -488 -25 -94 -23
-263 6 -350 11 -36 21 -75 21 -87 0 -13 -25 -82 -56 -154 -63 -147 -158 -404
-175 -474 -15 -60 -29 -67 -29 -13 0 24 -15 140 -35 258 -19 118 -37 241 -41
273 -3 32 -8 57 -10 54 -11 -11 19 -284 45 -421 39 -195 40 -246 7 -371 -15
-55 -29 -138 -31 -185 l-4 -85 13 80 c45 271 228 802 384 1114 l67 134 92 38
c51 22 141 53 200 70 125 36 151 48 275 130 50 33 147 92 215 131 67 39 123
77 123 85 0 9 -8 12 -22 8 -13 -2 -115 -22 -228 -44 -281 -54 -360 -85 -520
-198 l-25 -18 19 30 c51 79 140 188 238 290 l108 112 107 6 c135 6 273 35 477
99 185 57 263 93 345 154 57 42 121 123 121 150 0 17 -31 11 -180 -33 -170
-51 -371 -126 -589 -219 -107 -46 -197 -82 -199 -79 -8 8 231 236 273 260 47
28 199 84 419 155 182 59 219 76 446 210 91 53 186 109 213 124 26 15 47 29
47 31 0 12 -132 -57 -318 -166 -174 -103 -261 -140 -473 -205 -102 -30 -191
-63 -328 -121 -10 -5 -12 -2 -6 7 10 17 -140 -126 -342 -325 -84 -82 -153
-145 -153 -140 0 6 23 39 50 75 223 290 266 356 347 534 71 159 112 229 167
294 38 44 58 82 43 82 -2 0 -32 -24 -68 -53z m-140 -284 c-95 -198 -118 -234
-237 -377 -42 -50 -95 -117 -119 -150 -49 -67 -52 -58 -22 58 30 113 95 246
169 346 53 72 280 310 294 310 3 0 -35 -84 -85 -187z m761 -182 c0 -19 -120
-119 -186 -153 -128 -68 -415 -150 -614 -177 -170 -23 -196 -24 -180 -8 8 8
141 64 295 124 422 166 685 248 685 214z m-1380 -398 c-14 -107 -37 -173 -104
-291 -66 -117 -101 -216 -125 -359 -9 -59 -20 -103 -23 -97 -13 20 -28 133
-28 209 0 106 18 170 91 329 33 72 90 197 127 278 l67 147 3 -67 c2 -37 -2
-104 -8 -149z m663 -218 c-37 -26 -192 -114 -292 -165 -57 -30 -146 -64 -218
-85 -68 -19 -150 -48 -183 -65 -57 -29 -60 -29 -50 -9 16 29 187 109 341 158
132 43 197 76 129 65 -72 -11 -174 -49 -300 -110 -72 -35 -130 -59 -130 -54 0
4 27 33 61 63 108 98 257 155 519 197 147 23 149 23 123 5z"/>
<path d="M1816 5061 c-76 -151 -99 -206 -50 -121 58 101 136 261 131 266 -3 4
-40 -62 -81 -145z"/>
<path d="M2445 4988 c-44 -16 -174 -63 -290 -104 -115 -40 -205 -73 -199 -73
7 -1 65 13 129 30 169 43 465 155 465 174 0 10 -27 3 -105 -27z"/>
<path d="M1311 4549 c-27 -43 -78 -165 -86 -204 -3 -16 6 -3 20 30 14 33 42
91 61 128 37 72 40 104 5 46z"/>
<path d="M1211 4294 c0 -11 3 -14 6 -6 3 7 2 16 -1 19 -3 4 -6 -2 -5 -13z"/>
<path d="M3070 5616 c-180 -54 -500 -197 -637 -285 -98 -63 -132 -97 -42 -42
135 82 345 178 589 268 80 30 153 57 163 60 16 5 25 24 10 22 -5 0 -42 -10
-83 -23z"/>
<path d="M2945 4496 c-233 -44 -449 -136 -658 -279 -158 -108 -336 -293 -308
-320 10 -9 21 -1 54 38 200 244 560 450 899 516 179 35 351 19 412 -37 42 -40
57 -80 57 -152 -1 -203 -191 -433 -476 -575 -154 -77 -347 -127 -492 -127 -65
0 -77 3 -94 23 -10 12 -18 27 -19 33 0 18 222 264 364 402 122 119 147 152
115 152 -29 0 -363 -339 -474 -482 l-36 -45 -36 18 c-47 24 -68 24 -93 -1 -27
-27 -25 -37 15 -77 l35 -35 -69 -91 c-160 -214 -256 -382 -267 -469 -6 -44 -5
-48 15 -48 24 0 41 33 41 81 0 55 94 214 251 425 l68 91 48 -12 c46 -12 47
-13 116 -131 85 -148 138 -216 196 -257 44 -30 51 -32 136 -32 108 1 194 28
355 112 176 92 450 281 450 310 0 26 -32 12 -108 -46 -251 -191 -521 -326
-677 -338 -86 -7 -132 13 -193 82 -45 52 -183 280 -174 289 3 3 28 6 56 6 259
0 615 162 804 366 179 192 235 421 132 538 -51 58 -117 79 -255 82 -71 2 -149
-2 -190 -10z m-708 -869 c16 -9 20 -16 13 -27 -8 -13 -13 -13 -36 0 -15 8 -29
21 -32 28 -5 15 26 15 55 -1z m63 -57 c0 -5 -2 -10 -4 -10 -3 0 -8 5 -11 10
-3 6 -1 10 4 10 6 0 11 -4 11 -10z"/>
<path d="M5149 4333 c-114 -120 -307 -348 -454 -538 l-97 -125 -141 0 c-148 0
-482 -15 -601 -26 l-68 -7 83 114 c150 207 292 392 401 523 100 119 116 146
85 146 -23 0 -209 -228 -429 -525 -82 -110 -159 -214 -172 -231 -24 -30 -27
-31 -154 -43 -137 -14 -158 -20 -149 -44 4 -12 15 -13 49 -7 24 5 79 11 122
15 66 6 77 5 71 -6 -5 -8 -39 -57 -75 -109 -261 -370 -309 -450 -272 -450 5 0
58 71 117 158 60 86 150 216 201 288 l93 132 73 6 c234 21 728 34 728 20 0 -3
-51 -76 -113 -162 -139 -192 -197 -279 -269 -402 -103 -177 -119 -220 -79
-220 24 0 65 55 57 75 -10 28 149 286 338 547 l121 167 161 -6 c116 -4 163 -3
168 6 12 19 -40 31 -142 32 -172 2 -170 -11 -24 175 160 203 257 318 394 465
59 64 108 122 108 128 0 29 -36 2 -131 -96z"/>
<path d="M1825 4083 c-22 -14 -54 -39 -72 -54 -17 -15 -58 -41 -90 -58 -140
-75 -433 -333 -542 -478 -28 -37 -69 -103 -91 -145 -40 -77 -41 -78 -16 -68
14 5 77 37 138 71 281 153 406 265 568 509 56 85 115 171 131 191 49 62 38 75
-26 32z m-93 -170 c-112 -164 -197 -259 -317 -355 -105 -84 -382 -264 -392
-254 -8 8 84 141 164 238 82 98 159 167 335 299 68 50 135 103 149 116 24 22
130 82 137 77 2 -1 -32 -56 -76 -121z"/>
<path d="M1499 3719 c-108 -74 -295 -228 -359 -295 -49 -51 -50 -53 -10 -18
53 47 158 126 333 253 114 82 144 111 119 111 -5 0 -42 -23 -83 -51z"/>
<path d="M1479 4008 c-45 -22 -92 -60 -159 -126 -64 -64 -72 -74 -24 -30 38
35 112 90 162 122 82 52 100 66 89 66 -2 0 -33 -14 -68 -32z"/>
<path d="M973 3680 c0 -47 2 -66 4 -42 2 23 2 61 0 85 -2 23 -4 4 -4 -43z"/>
<path d="M901 3709 c0 -24 4 -62 9 -84 6 -29 7 -17 3 40 -6 88 -13 114 -12 44z"/>
<path d="M3731 2514 c0 -11 3 -14 6 -6 3 7 2 16 -1 19 -3 4 -6 -2 -5 -13z"/>
<path d="M2661 2048 c-17 -18 -31 -42 -31 -52 0 -19 1 -18 21 3 28 30 79 26
96 -8 l12 -25 6 27 c7 27 -15 77 -34 77 -5 0 -16 3 -24 6 -9 3 -27 -8 -46 -28z"/>
<path d="M4232 2055 c-20 -15 -22 -22 -17 -79 l5 -62 -55 -29 c-45 -25 -58
-38 -75 -77 -11 -26 -20 -63 -20 -82 0 -39 -53 -181 -77 -208 -15 -17 -58 -18
-572 -20 l-556 -3 -3 -132 -3 -133 576 0 575 0 0 127 0 126 58 118 c31 65 61
118 66 118 4 1 6 -16 3 -36 -15 -96 -37 -314 -39 -374 -1 -60 2 -71 36 -126
37 -60 37 -63 29 -120 -6 -38 -6 -65 1 -75 7 -11 4 -23 -12 -43 -12 -15 -22
-36 -22 -47 0 -16 6 -19 38 -16 36 3 37 4 38 46 0 23 6 48 12 54 7 7 12 21 12
32 0 20 1 20 16 -2 8 -12 20 -19 26 -16 6 4 9 -14 7 -52 -3 -46 -1 -59 10 -59
20 0 48 51 56 102 6 36 4 42 -15 48 -15 5 -19 12 -15 26 4 13 -4 32 -25 59
l-31 39 33 168 c29 152 36 173 69 218 53 74 58 87 54 142 -5 70 -29 121 -82
175 l-47 48 27 28 c30 31 37 91 14 111 -25 20 -71 23 -95 6z m143 -423 c-3 -9
-14 -28 -24 -42 l-19 -25 -8 29 c-4 15 -1 53 6 84 l12 56 20 -43 c10 -23 16
-50 13 -59z m-435 -197 l0 -25 -505 0 c-483 0 -505 1 -505 18 0 10 3 22 7 25
3 4 231 7 505 7 l498 0 0 -25z m-390 -75 c0 -20 -7 -20 -310 -20 -303 0 -310
0 -310 20 0 20 7 20 310 20 303 0 310 0 310 -20z m0 -70 c0 -20 -7 -20 -310
-20 -303 0 -310 0 -310 20 0 20 7 20 310 20 303 0 310 0 310 -20z"/>
<path d="M2603 1862 c-44 -42 -53 -58 -84 -150 l-34 -103 35 -65 c19 -36 38
-68 42 -70 4 -3 17 0 28 6 22 12 27 -1 14 -35 -5 -13 -9 -14 -15 -4 -12 20
-15 7 -44 -251 -27 -232 -31 -297 -22 -306 11 -11 135 -16 141 -5 4 6 -1 14
-11 18 -41 14 -41 18 -8 179 18 85 36 158 39 161 3 4 6 -75 6 -174 l0 -180 46
-7 c68 -9 104 -7 104 4 0 6 -11 15 -25 20 -14 5 -27 21 -31 36 -11 45 26 536
42 555 19 21 18 29 -11 70 -23 35 -24 41 -18 143 6 97 4 108 -14 129 -11 12
-24 31 -29 42 -7 16 -9 12 -12 -22 -2 -24 -7 -43 -11 -43 -5 0 -24 22 -43 50
l-35 49 -50 -47z m-23 -249 c-1 -44 -2 -47 -15 -29 -18 24 -19 48 -3 64 18 18
18 16 18 -35z"/>
<path d="M3468 1733 c-40 -40 -49 -45 -62 -34 -9 8 -16 9 -16 3 0 -5 7 -15 16
-23 13 -11 23 -4 72 44 31 31 52 57 47 57 -6 0 -31 -21 -57 -47z"/>
</g>
</svg>
